<svg width="1440" height="648" viewBox="0 0 1440 648" fill="none" xmlns="http://www.w3.org/2000/svg">
<g clip-path="url(#clip0_1538_1625)">
<path d="M0.109375 647.905C0.109375 647.905 79.3498 448.034 300.269 546.523C521.188 645.012 572.765 501.758 672.714 452.039C815.862 380.832 882.547 309.571 1041.35 405.005C1298.93 559.796 1439.88 647.905 1439.88 647.905" stroke="#8B0000" stroke-opacity="0.04" stroke-miterlimit="10"/>
<path d="M1439.88 639.568C1439.88 639.568 1382.81 605.501 1277.13 542.681C1208.86 502.104 1135.34 461.815 1040.03 407.795C997.47 383.666 961.14 370.646 926.892 365.89C835.011 353.118 773.206 397.807 669.672 448.853C647.849 459.597 628.149 475.06 608.227 491.968C535.72 553.875 462.738 620.042 298.656 541.898C88.2812 441.704 0.109375 637.845 0.109375 637.845" stroke="#8B0000" stroke-opacity="0.04" stroke-miterlimit="10"/>
<path d="M1439.88 631.231C1439.88 631.231 1381.12 597.92 1274.86 536.243C1200.63 493.155 1133.41 460.978 1038.71 410.588C996.606 388.179 960.18 375.752 924.531 370.952C829.194 358.075 769.318 395.503 666.629 445.672C644.917 456.254 625.063 471.717 604.839 489.21C529.27 554.576 452.789 616.704 297.039 537.282C97.251 435.387 0.109375 627.781 0.109375 627.781" stroke="#8B0000" stroke-opacity="0.04" stroke-miterlimit="10"/>
<path d="M1439.88 622.895C1439.88 622.895 1379.35 590.452 1272.58 529.8C1192.36 484.229 1131.51 460.145 1037.39 413.378C995.757 392.687 959.22 380.858 922.17 376.008C823.382 363.029 765.426 393.195 663.586 442.487C641.985 452.906 622.01 468.401 601.455 486.447C522.93 555.391 442.883 613.379 295.426 532.657C106.259 429.088 0.109375 617.716 0.109375 617.716" stroke="#8B0000" stroke-opacity="0.04" stroke-miterlimit="10"/>
<path d="M1439.88 614.554C1439.88 614.554 1377.52 583.06 1270.31 523.353C1184.06 475.321 1129.67 459.314 1036.08 416.163C994.926 397.19 958.26 385.956 919.808 381.061C817.57 367.978 761.539 390.883 660.543 439.297C639.048 449.555 618.958 465.086 598.072 483.68C516.6 556.214 433.016 610.073 293.814 528.028C115.311 422.817 0.109375 607.657 0.109375 607.657" stroke="#8B0000" stroke-opacity="0.04" stroke-miterlimit="10"/>
<path d="M1439.88 606.217C1439.88 606.217 1375.64 575.749 1268.04 516.91C1175.75 466.44 1127.87 458.49 1034.76 418.952C994.12 401.694 957.305 391.063 917.452 386.114C811.758 372.927 757.656 388.57 657.506 436.103C636.12 446.199 615.915 461.765 594.688 480.909C510.279 557.042 423.187 606.784 292.201 523.398C124.41 416.577 0.109375 597.592 0.109375 597.592" stroke="#8B0000" stroke-opacity="0.04" stroke-miterlimit="10"/>
<path d="M1439.88 597.88C1439.88 597.88 1373.71 568.501 1265.77 510.468C1167.41 457.59 1126.12 457.667 1033.44 421.742C993.328 406.193 956.345 396.164 915.091 391.17C805.946 377.88 753.764 386.262 654.463 432.917C633.188 442.851 612.868 458.463 591.305 478.146C503.968 557.883 413.401 603.544 290.589 518.773C133.552 410.377 0.109375 587.528 0.109375 587.528" stroke="#8B0000" stroke-opacity="0.04" stroke-miterlimit="10"/>
<path d="M1439.88 589.543C1439.88 589.543 1371.75 561.302 1263.5 504.029C1159.06 448.772 1124.42 456.839 1032.12 424.535C992.56 410.687 955.39 401.275 912.73 396.232C800.134 382.843 749.877 383.958 651.42 429.736C630.255 439.508 609.825 455.16 587.921 475.388C497.662 558.742 403.654 600.35 288.981 514.157C142.738 404.236 0.109375 577.467 0.109375 577.467" stroke="#8B0000" stroke-opacity="0.04" stroke-miterlimit="10"/>
<path d="M1439.88 581.207C1439.88 581.207 1369.76 554.15 1261.23 497.587C1150.68 439.981 1122.78 455.998 1030.81 427.326C991.816 415.169 954.435 406.378 910.373 401.29C794.327 387.797 745.994 381.651 648.382 426.552C627.323 436.157 606.787 451.859 584.538 472.627C491.365 559.603 393.955 597.206 287.368 509.532C151.967 398.158 0.109375 567.404 0.109375 567.404" stroke="#8B0000" stroke-opacity="0.04" stroke-miterlimit="10"/>
<path d="M1439.88 572.87C1439.88 572.87 1367.75 547.032 1258.95 491.145C1142.28 431.213 1121.18 455.139 1029.48 430.115C991.087 419.637 953.47 411.484 908.007 406.346C788.506 392.75 742.097 379.343 645.335 423.366C624.386 432.81 603.74 448.561 581.15 469.864C485.069 560.471 384.284 594.124 285.751 504.912C161.23 392.156 0.109375 557.339 0.109375 557.339" stroke="#8B0000" stroke-opacity="0.04" stroke-miterlimit="10"/>
<path d="M1439.88 564.528C1439.88 564.528 1365.72 539.941 1256.68 484.697C1133.87 422.475 1119.65 454.252 1028.17 432.899C990.391 424.081 952.515 416.581 905.646 411.394C782.694 397.694 738.21 377.025 642.292 420.171C621.454 429.453 600.702 445.249 577.766 467.092C478.786 561.338 374.652 591.104 284.138 500.277C170.516 386.257 0.109375 547.279 0.109375 547.279" stroke="#8B0000" stroke-opacity="0.04" stroke-miterlimit="10"/>
<path d="M1439.88 556.191C1439.88 556.191 1363.67 532.886 1254.41 478.254C1125.44 413.769 1118.17 453.334 1026.85 435.689C989.714 428.513 951.56 421.683 903.289 416.451C776.887 402.647 734.418 374.902 639.254 416.986C618.545 426.146 597.669 441.951 574.383 464.33C472.509 562.22 365.039 588.184 282.526 495.657C179.812 380.463 0.109375 537.214 0.109375 537.214" stroke="#8B0000" stroke-opacity="0.04" stroke-miterlimit="10"/>
<path d="M1439.88 547.855C1439.88 547.855 1361.61 525.854 1252.14 471.816C1116.99 405.099 1116.74 452.38 1025.53 438.482C989.047 432.926 950.596 426.794 900.923 421.512C771.065 407.605 730.526 372.607 636.207 413.805C615.608 422.803 594.631 438.662 570.994 461.572C466.236 563.111 355.427 585.368 280.909 491.036C189.094 374.794 0.109375 527.15 0.109375 527.15" stroke="#8B0000" stroke-opacity="0.04" stroke-miterlimit="10"/>
<path d="M1439.88 539.518C1439.88 539.518 1359.53 518.845 1249.87 465.374C1108.52 396.457 1115.36 451.368 1024.21 441.272C988.409 437.304 949.645 431.896 898.567 426.569C765.258 412.559 726.644 370.304 633.169 410.62C612.676 419.456 591.602 435.365 567.616 458.809C459.978 564.002 345.809 582.646 279.301 486.411C198.342 369.256 0.109375 517.09 0.109375 517.09" stroke="#8B0000" stroke-opacity="0.04" stroke-miterlimit="10"/>
<path d="M1439.88 531.182C1439.88 531.182 1357.45 511.854 1247.6 458.931C1100.04 387.842 1114.01 450.298 1022.89 444.062C987.78 441.659 948.686 437.003 896.206 431.626C759.446 417.513 722.756 368.005 630.126 407.43C609.743 416.105 588.569 432.067 564.227 456.043C453.715 564.893 336.143 580.033 277.688 481.786C207.528 363.857 0.109375 507.026 0.109375 507.026" stroke="#8B0000" stroke-opacity="0.04" stroke-miterlimit="10"/>
<path d="M1439.88 522.845C1439.88 522.845 1355.35 504.884 1245.32 452.488C1091.54 379.261 1112.7 449.154 1021.57 446.851C987.161 445.983 947.726 442.104 893.845 436.679C753.63 422.461 718.864 365.692 627.083 404.24C606.811 412.753 585.536 428.769 560.844 453.276C447.462 565.793 326.41 577.522 276.076 477.157C216.608 358.588 0.109375 496.961 0.109375 496.961" stroke="#8B0000" stroke-opacity="0.04" stroke-miterlimit="10"/>
<path d="M1439.88 514.504C1439.88 514.504 1353.25 497.925 1243.05 446.046C1083.03 370.709 1111.4 447.936 1020.25 449.641C986.552 450.271 946.766 447.211 891.483 441.736C747.818 427.415 714.977 363.389 624.04 401.055C603.879 409.406 582.508 425.481 557.46 450.514C441.213 566.697 316.586 575.115 274.463 472.537C225.559 353.437 0.109375 486.902 0.109375 486.902" stroke="#8B0000" stroke-opacity="0.04" stroke-miterlimit="10"/>
<path d="M1439.88 506.167C1439.88 506.167 1351.14 490.982 1240.78 439.603C1074.5 362.192 1110.12 446.631 1018.94 452.43C985.952 454.526 945.811 452.313 889.127 446.793C742.011 432.373 711.089 361.081 621.002 397.87C600.946 406.058 579.479 422.187 554.077 447.751C434.969 567.606 306.628 572.784 272.851 467.911C234.356 348.38 0.109375 476.837 0.109375 476.837" stroke="#8B0000" stroke-opacity="0.04" stroke-miterlimit="10"/>
<path d="M1439.88 497.83C1439.88 497.83 1349.03 484.054 1238.51 433.161C1065.96 353.707 1108.83 445.236 1017.62 455.22C985.342 458.751 944.851 457.42 886.766 451.85C736.194 437.327 707.202 358.773 617.96 394.685C598.014 402.711 576.451 418.899 550.693 444.989C428.735 568.519 296.516 570.504 271.238 463.291C242.971 343.382 0.109375 466.773 0.109375 466.773" stroke="#8B0000" stroke-opacity="0.04" stroke-miterlimit="10"/>
<path d="M1439.88 489.493C1439.88 489.493 1346.91 477.134 1236.24 426.718C1057.4 345.253 1107.53 443.746 1016.3 458.008C984.728 462.944 943.896 462.521 884.404 456.906C730.382 442.28 703.31 356.46 614.917 391.499C595.082 399.363 573.423 415.605 547.31 442.226C422.501 569.437 286.236 568.245 269.626 458.665C251.403 338.405 0.109375 456.713 0.109375 456.713" stroke="#8B0000" stroke-opacity="0.04" stroke-miterlimit="10"/>
<path d="M1439.88 481.157C1439.88 481.157 1344.79 470.229 1233.97 420.276C1048.83 336.831 1106.18 442.168 1014.98 460.799C984.109 467.106 942.941 467.628 882.048 461.959C724.575 447.229 699.417 354.144 611.879 388.31C592.149 396.008 570.399 412.312 543.927 439.46C416.271 570.355 291.649 563.994 268.013 454.041C242.543 335.536 0.109375 446.649 0.109375 446.649" stroke="#8B0000" stroke-opacity="0.04" stroke-miterlimit="10"/>
<path d="M1439.88 472.815C1439.88 472.815 1342.67 463.327 1231.7 413.833C1040.24 328.44 1104.79 440.494 1013.66 463.588C983.466 471.241 941.981 472.73 879.687 467.016C718.763 452.183 695.525 351.826 608.836 385.124C589.217 392.66 567.376 409.023 540.543 436.697C410.047 571.277 280.385 562.895 266.405 449.416C251.585 329.142 0.109375 436.584 0.109375 436.584" stroke="#8B0000" stroke-opacity="0.04" stroke-miterlimit="10"/>
<path d="M1439.88 464.479C1439.88 464.479 1340.54 456.439 1229.42 407.39C1031.64 320.082 1103.33 438.735 1012.34 466.378C982.803 475.353 941.021 477.837 877.326 472.073C712.947 457.136 691.633 349.51 605.794 381.939C586.28 389.309 564.347 405.735 537.155 433.935C403.822 572.205 254.364 561.236 264.788 444.791C275.668 323.204 0.109375 426.525 0.109375 426.525" stroke="#8B0000" stroke-opacity="0.04" stroke-miterlimit="10"/>
<path d="M1439.88 456.141C1439.88 456.141 1338.41 449.559 1227.15 400.947C1023.02 311.758 1101.8 436.894 1011.02 469.166C982.112 479.442 940.061 482.938 874.964 477.13C707.135 462.089 687.736 347.192 602.751 378.749C583.348 385.956 561.324 402.441 533.771 431.167C397.607 573.131 243.46 558.72 263.175 440.165C283.5 317.939 0.109375 416.46 0.109375 416.46" stroke="#8B0000" stroke-opacity="0.04" stroke-miterlimit="10"/>
<path d="M1439.88 447.805C1439.88 447.805 1336.28 442.689 1224.88 394.504C1014.39 303.466 1100.19 434.987 1009.71 471.956C981.407 483.518 939.106 488.044 872.603 482.187C701.323 467.043 683.839 344.871 599.708 375.563C580.41 382.604 558.296 399.152 530.388 428.4C391.397 574.057 232.46 556.088 261.563 435.536C290.665 314.983 0.109375 406.395 0.109375 406.395" stroke="#8B0000" stroke-opacity="0.04" stroke-miterlimit="10"/>
<path d="M1439.88 439.469C1439.88 439.469 1334.15 435.824 1222.61 388.062C1005.75 295.206 1098.47 433.021 1008.39 474.746C980.663 487.586 938.151 493.147 870.242 487.24C695.506 471.992 679.884 342.401 596.666 372.374C577.464 379.217 555.272 395.864 527 425.634C385.182 574.989 221.393 553.335 259.945 430.911C298.963 307.025 0.109375 396.336 0.109375 396.336" stroke="#8B0000" stroke-opacity="0.04" stroke-miterlimit="10"/>
<path d="M1439.88 431.131C1439.88 431.131 1332.02 428.967 1220.34 381.624C997.091 286.986 1096.67 431.015 1007.07 477.539C979.89 491.648 937.191 498.257 867.881 492.301C689.694 476.954 675.997 340.097 593.623 369.193C574.527 375.869 552.311 392.629 523.616 422.876C379.279 576.181 210.302 550.474 258.333 426.29C306.657 301.374 0.109375 386.271 0.109375 386.271" stroke="#8B0000" stroke-opacity="0.04" stroke-miterlimit="10"/>
<path d="M1439.88 422.791C1439.88 422.791 1329.89 422.111 1218.07 375.177C988.423 278.789 1094.77 428.972 1005.75 480.325C979.094 495.702 936.236 503.355 865.524 497.354C683.887 481.904 672.11 337.785 590.585 366.003C571.599 372.518 549.278 389.327 520.237 420.109C373.025 577.068 199.201 547.491 256.725 421.666C314.355 295.602 0.109375 376.207 0.109375 376.207" stroke="#8B0000" stroke-opacity="0.04" stroke-miterlimit="10"/>
<path d="M1439.88 414.453C1439.88 414.453 1327.75 415.263 1215.79 368.734C979.737 270.627 1092.77 426.911 1004.43 483.114C978.258 499.765 935.272 508.461 863.158 502.41C678.066 486.857 668.217 335.477 587.537 362.818C568.662 369.17 546.24 386.033 516.844 417.346C366.758 577.963 188.106 544.418 255.108 417.04C322.081 289.726 0.109375 366.147 0.109375 366.147" stroke="#8B0000" stroke-opacity="0.04" stroke-miterlimit="10"/>
<path d="M1439.88 406.116C1439.88 406.116 1325.61 408.425 1213.52 362.291C971.045 262.497 1090.69 424.851 1003.11 485.903C977.404 503.827 934.317 513.563 860.802 507.467C672.258 491.81 664.33 333.169 584.499 359.632C565.734 365.823 543.211 382.735 513.466 414.584C360.509 578.858 177.053 541.259 253.5 412.42C329.842 283.755 0.109375 356.082 0.109375 356.082" stroke="#8B0000" stroke-opacity="0.04" stroke-miterlimit="10"/>
<path d="M1439.88 397.78C1439.88 397.78 1323.48 401.591 1211.25 355.853C962.339 254.413 1088.52 422.795 1001.8 488.697C976.526 507.904 933.362 518.675 858.445 512.524C666.451 496.764 660.447 330.861 581.461 356.447C562.802 362.476 540.183 379.438 510.087 411.822C354.255 579.749 166.034 538.03 251.892 407.795C337.645 277.709 0.109375 346.019 0.109375 346.019" stroke="#8B0000" stroke-opacity="0.04" stroke-miterlimit="10"/>
<path d="M1439.88 389.443C1439.88 389.443 1321.35 394.761 1208.98 349.411C879.605 216.481 1195.75 545.147 856.079 517.581C614.236 497.952 665.4 237.474 506.694 409.059C347.988 580.644 155.048 534.745 250.27 403.17C345.497 271.595 0.109375 335.958 0.109375 335.958" stroke="#8B0000" stroke-opacity="0.04" stroke-miterlimit="10"/>
<path d="M0.109375 0.0404675C0.109375 0.0404675 53.2898 129.937 162.238 65.4433C366.853 -55.6849 177.158 190.652 362.025 294.27C546.888 397.888 707.36 250.467 764.918 116.454C787.709 63.3828 933.525 -25.9866 1180.48 132.641C1342.12 236.471 1439.88 0.0404675 1439.88 0.0404675" stroke="#8B0000" stroke-opacity="0.04" stroke-miterlimit="10"/>
<path d="M1439.88 9.22339C1439.88 9.22339 1337.19 239.458 1180.1 137.028C940.431 -18.4323 805.01 68.3591 778.058 118.398C709.736 245.258 562.221 393.371 374.096 292.399C190.184 193.689 371.941 -51.5319 166.782 68.1521C55.3247 132.646 0.109375 9.46185 0.109375 9.46185" stroke="#8B0000" stroke-opacity="0.04" stroke-miterlimit="10"/>
<path d="M1439.88 18.4014C1439.88 18.4014 1332.53 242.095 1179.71 141.41C947.735 -11.4184 822.235 73.3934 791.193 120.341C711.929 240.228 577.641 388.836 386.161 290.527C203.31 196.645 377.46 -46.7001 171.323 70.8604C57.5996 135.723 0.109375 18.8828 0.109375 18.8828" stroke="#8B0000" stroke-opacity="0.04" stroke-miterlimit="10"/>
<path d="M1439.88 27.579C1439.88 27.579 1327.74 244.915 1179.32 145.792C954.843 -4.13037 839.378 78.4679 804.339 122.284C713.916 235.337 593.157 384.283 398.236 288.651C216.541 199.511 382.729 -42.2599 175.872 73.5639C59.74 138.598 0.109375 28.3034 0.109375 28.3034" stroke="#8B0000" stroke-opacity="0.04" stroke-miterlimit="10"/>
<path d="M1439.88 36.7617C1439.88 36.7617 1322.95 247.741 1178.94 150.183C961.946 3.18069 856.425 83.5744 817.479 124.237C715.653 230.541 608.76 379.712 410.306 286.788C229.869 202.3 387.97 -37.8328 180.417 76.2815C61.8661 141.459 0.109375 37.7245 0.109375 37.7245" stroke="#8B0000" stroke-opacity="0.04" stroke-miterlimit="10"/>
<path d="M1439.88 45.9402C1439.88 45.9402 1318.16 250.567 1178.56 154.566C969.049 10.4921 873.366 88.6723 830.619 126.176C717.136 225.745 624.448 375.092 422.376 284.912C243.287 204.987 393.187 -33.4503 184.962 78.9903C63.9826 144.317 0.109375 47.1459 0.109375 47.1459" stroke="#8B0000" stroke-opacity="0.04" stroke-miterlimit="10"/>
<path d="M1439.88 55.122C1439.88 55.122 1313.37 253.405 1178.17 158.951C976.152 17.8158 890.216 93.742 843.76 128.124C718.384 220.917 640.219 370.439 434.446 283.045C256.792 207.586 398.385 -29.0824 189.507 81.7025C66.0894 147.155 0.109375 56.5663 0.109375 56.5663" stroke="#8B0000" stroke-opacity="0.04" stroke-miterlimit="10"/>
<path d="M1439.88 64.3003C1439.88 64.3003 1308.58 256.244 1177.79 163.334C983.255 25.145 906.985 98.7677 856.905 130.068C719.425 215.986 656.071 365.733 446.521 281.169C270.384 210.088 403.563 -24.7541 194.052 84.4067C68.1867 149.985 0.109375 65.992 0.109375 65.992" stroke="#8B0000" stroke-opacity="0.04" stroke-miterlimit="10"/>
<path d="M1439.88 73.4829C1439.88 73.4829 1303.79 259.092 1177.4 167.72C990.348 32.492 923.686 103.744 870.04 132.016C720.294 210.92 671.994 360.973 458.586 279.302C284.042 212.504 408.717 -20.4395 198.592 87.1196C70.2744 152.801 0.109375 75.413 0.109375 75.413" stroke="#8B0000" stroke-opacity="0.04" stroke-miterlimit="10"/>
<path d="M1439.88 82.6616C1439.88 82.6616 1299 261.945 1177.01 172.107C997.441 39.8485 940.349 108.666 883.181 133.96C721.052 205.697 688 356.146 470.656 277.431C297.778 214.817 413.857 -16.1558 203.137 89.8286C72.3572 155.609 0.109375 84.8347 0.109375 84.8347" stroke="#8B0000" stroke-opacity="0.04" stroke-miterlimit="10"/>
<path d="M1439.88 91.8388C1439.88 91.8388 1294.2 264.805 1176.63 176.489C1004.53 47.2171 956.988 113.524 896.321 135.903C721.734 200.307 704.068 351.241 482.727 275.554C311.581 217.03 418.983 -11.9051 207.682 92.5317C74.4257 158.398 0.109375 94.2548 0.109375 94.2548" stroke="#8B0000" stroke-opacity="0.04" stroke-miterlimit="10"/>
<path d="M1439.88 101.022C1439.88 101.022 1289.41 267.676 1176.25 180.876C1011.62 54.6053 973.618 118.335 909.466 137.851C722.387 194.765 720.213 346.262 494.801 273.687C325.446 219.163 424.094 -7.6617 212.231 95.2453C76.4894 161.179 0.109375 103.677 0.109375 103.677" stroke="#8B0000" stroke-opacity="0.04" stroke-miterlimit="10"/>
<path d="M1439.88 110.2C1439.88 110.2 1284.62 270.556 1175.86 185.258C1018.7 62.0065 990.247 123.09 922.606 139.795C723.03 189.073 736.415 341.182 506.872 271.816C339.359 221.192 429.191 -3.45036 216.776 97.954C78.5387 163.946 0.109375 113.098 0.109375 113.098" stroke="#8B0000" stroke-opacity="0.04" stroke-miterlimit="10"/>
<path d="M1439.88 119.383C1439.88 119.383 1279.83 273.449 1175.48 189.645C1025.78 69.4252 1006.88 127.814 935.747 141.739C723.692 183.256 752.67 336.008 518.942 269.939C353.315 223.122 434.273 0.737978 221.321 100.662C80.588 166.699 0.109375 122.519 0.109375 122.519" stroke="#8B0000" stroke-opacity="0.04" stroke-miterlimit="10"/>
<path d="M1439.88 128.561C1439.88 128.561 1275.03 276.346 1175.09 194.031C1032.84 76.8665 1023.53 132.502 948.882 143.687C724.383 177.331 768.973 330.731 531.007 268.072C367.314 224.971 439.341 4.91297 225.861 103.375C82.6228 169.439 0.109375 131.939 0.109375 131.939" stroke="#8B0000" stroke-opacity="0.04" stroke-miterlimit="10"/>
<path d="M1439.88 137.744C1439.88 137.744 1270.24 279.262 1174.71 198.418C1039.9 84.3307 1040.19 137.163 962.027 145.635C725.127 171.311 785.334 325.336 543.082 266.205C381.352 226.731 444.405 9.06586 230.406 106.088C84.6577 172.161 0.109375 141.361 0.109375 141.361" stroke="#8B0000" stroke-opacity="0.04" stroke-miterlimit="10"/>
<path d="M1439.88 146.921C1439.88 146.921 1265.44 282.19 1174.32 202.799C1046.95 91.8121 1056.87 141.797 975.168 147.573C725.909 165.205 801.733 319.807 555.152 264.324C395.419 228.386 449.453 13.1864 234.951 108.787C86.6782 174.874 0.109375 150.781 0.109375 150.781" stroke="#8B0000" stroke-opacity="0.04" stroke-miterlimit="10"/>
<path d="M1439.88 156.099C1439.88 156.099 1260.63 285.132 1173.94 207.181C1053.98 99.3209 1073.57 146.413 988.308 149.517C726.744 159.046 818.16 314.147 567.222 262.452C409.504 229.96 454.497 17.2985 239.496 111.495C88.6987 177.569 0.109375 160.202 0.109375 160.202" stroke="#8B0000" stroke-opacity="0.04" stroke-miterlimit="10"/>
<path d="M1439.88 165.282C1439.88 165.282 1255.81 288.098 1173.55 211.573C1061 106.866 1090.29 151.025 1001.45 151.47C727.627 152.842 834.617 308.352 579.292 260.59C423.605 231.463 459.532 21.3977 244.041 114.213C90.7096 180.255 0.109375 169.624 0.109375 169.624" stroke="#8B0000" stroke-opacity="0.04" stroke-miterlimit="10"/>
<path d="M1439.88 174.461C1439.88 174.461 1250.99 291.076 1173.17 215.955C1068 114.43 1107.02 155.618 1014.59 153.414C728.563 146.593 851.102 302.4 591.367 258.714C437.719 232.872 464.561 25.4696 248.59 116.918C92.7109 182.923 0.109375 179.045 0.109375 179.045" stroke="#8B0000" stroke-opacity="0.04" stroke-miterlimit="10"/>
<path d="M1439.88 183.643C1439.88 183.643 1246.15 294.081 1172.78 220.342C1074.98 122.033 1123.76 160.203 1027.73 155.357C729.537 140.312 867.588 296.29 603.432 256.842C451.834 234.203 469.577 29.5228 253.131 119.625C94.7122 185.577 0.109375 188.466 0.109375 188.466" stroke="#8B0000" stroke-opacity="0.04" stroke-miterlimit="10"/>
<path d="M1439.88 192.821C1439.88 192.821 1241.3 297.109 1172.4 224.724C1081.93 129.668 1140.53 164.783 1040.87 157.301C730.555 134.009 884.083 290.01 615.503 254.971C465.944 235.458 474.587 33.563 257.675 122.334C96.7038 188.214 0.109375 197.887 0.109375 197.887" stroke="#8B0000" stroke-opacity="0.04" stroke-miterlimit="10"/>
<path d="M1439.88 202.003C1439.88 202.003 1236.41 300.163 1172.01 229.11C1088.84 137.347 1157.3 169.358 1054.01 159.248C731.611 127.692 900.578 283.557 627.573 253.099C480.049 236.641 479.597 37.5846 262.216 125.046C98.6955 190.841 0.109375 207.307 0.109375 207.307" stroke="#8B0000" stroke-opacity="0.04" stroke-miterlimit="10"/>
<path d="M1439.88 211.182C1439.88 211.182 1231.51 303.25 1171.63 233.497C1095.72 145.068 1174.1 173.934 1067.16 161.197C732.705 121.358 917.063 276.922 639.648 251.232C494.144 237.758 484.603 41.5985 266.765 127.76C100.678 193.451 0.109375 216.729 0.109375 216.729" stroke="#8B0000" stroke-opacity="0.04" stroke-miterlimit="10"/>
<path d="M1439.88 220.36C1439.88 220.36 1226.57 306.364 1171.25 237.879C1102.54 152.829 1190.9 178.5 1080.3 163.136C733.828 115.01 933.52 270.083 651.718 249.356C508.215 238.801 489.599 45.5845 271.31 130.464C102.655 196.042 0.109375 226.15 0.109375 226.15" stroke="#8B0000" stroke-opacity="0.04" stroke-miterlimit="10"/>
<path d="M1439.88 229.542C1439.88 229.542 1221.58 309.517 1170.86 242.265C1109.31 160.634 1207.71 183.071 1093.44 165.084C734.98 108.661 949.948 263.06 663.788 247.488C522.263 239.786 494.595 49.5657 275.855 133.176C104.627 198.624 0.109375 235.57 0.109375 235.57" stroke="#8B0000" stroke-opacity="0.04" stroke-miterlimit="10"/>
<path d="M1439.88 238.72C1439.88 238.72 1216.52 312.707 1170.47 246.647C1115.99 168.481 1224.52 187.638 1106.57 167.027C736.156 102.304 966.323 255.83 675.853 245.612C536.272 240.704 499.582 53.525 280.395 135.88C106.595 201.189 0.109375 244.992 0.109375 244.992" stroke="#8B0000" stroke-opacity="0.04" stroke-miterlimit="10"/>
<path d="M1439.88 247.903C1439.88 247.903 1211.38 315.937 1170.09 251.034C1122.59 176.372 1241.35 192.204 1119.72 168.976C737.36 95.9467 982.659 248.393 687.928 243.745C550.252 241.577 504.573 57.4753 284.945 138.593C108.558 203.735 0.109375 254.413 0.109375 254.413" stroke="#8B0000" stroke-opacity="0.04" stroke-miterlimit="10"/>
<path d="M1439.88 257.081C1439.88 257.081 1206.14 319.2 1169.71 255.421C1129.08 184.295 1258.19 196.776 1132.86 170.92C738.584 89.5857 998.929 240.736 699.998 241.874C564.184 242.392 509.559 61.4125 289.49 141.302C110.521 206.273 0.109375 263.834 0.109375 263.834" stroke="#8B0000" stroke-opacity="0.04" stroke-miterlimit="10"/>
<path d="M1439.88 266.264C1439.88 266.264 1200.75 322.498 1169.32 259.808C1135.44 192.236 1275.03 201.347 1146 172.868C739.832 83.2286 1015.12 232.872 712.068 240.003C578.068 243.157 514.546 65.3358 294.035 144.011C112.474 208.793 0.109375 273.255 0.109375 273.255" stroke="#8B0000" stroke-opacity="0.04" stroke-miterlimit="10"/>
<path d="M1439.88 275.441C1439.88 275.441 1195.2 325.804 1168.94 264.189C1141.65 200.163 1291.93 205.733 1159.14 174.811C741.238 76.3081 1031.22 224.786 724.138 238.13C591.905 243.876 519.426 68.9836 298.575 146.723C114.341 211.078 0.109375 282.68 0.109375 282.68" stroke="#8B0000" stroke-opacity="0.04" stroke-miterlimit="10"/>
<path d="M1439.88 284.62C1439.88 284.62 1189.43 329.102 1168.55 268.572C1147.68 208.041 1308.74 210.475 1172.28 176.75C742.371 70.5005 1047.24 216.473 736.213 236.255C605.683 244.556 524.514 73.1324 303.124 149.428C116.376 213.782 0.109375 292.102 0.109375 292.102" stroke="#8B0000" stroke-opacity="0.04" stroke-miterlimit="10"/>
</g>
<defs>
<clipPath id="clip0_1538_1625">
<rect width="648" height="1440" fill="white" transform="matrix(0 -1 1 0 0 648)"/>
</clipPath>
</defs>
</svg>
