<?xml version="1.0" encoding="UTF-8"?>
<svg id="Layer_1" xmlns="http://www.w3.org/2000/svg" version="1.1" viewBox="0 0 2000 2000">
  <!-- Generator: Adobe Illustrator 30.1.0, SVG Export Plug-In . SVG Version: 2.1.1 Build 136)  -->
  <path d="M772.95,1470.64c4.18-13.26,1.01-27.82-2.45-41.27-24.55-95.85-15.33-244.25,7.64-340.34,7.82-32.81,17.7-64.08,36.59-92.92,2.71-4.14,9.08-3.1,10.4,1.67l16.19,58.63c.39,1.4.8,2.8,1.25,4.2,2.17,6.73,12.29,4.13,11.1-2.84-16.69-98.5-6.3-196.75,36.64-286.83l35.86-75.29c2.27-4.77,9.21-4.22,10.73.84,5.76,19.13,11.82,37.23,20.04,54.32,2.99,6.22,12.39,2.78,10.77-3.94-17.3-71.85-21.98-144.55-15.95-217.97,8.24-100.03-24.86-186.21-90.61-259.11-4.59-5.08,1.81-12.58,7.46-8.72,72.76,49.82,132.19,115.73,179.81,186.92,76.1,113.67,101.99,244.87,91.95,379.25-5.53,73.41-26.95,141.97-63.9,205.91-48.76,84.46-105.5,161.95-168.15,236.66-67.21,80.09-120.16,169.06-137.69,271.3-.34,1.97.91,5.62,1.15,6.68.29,1.35,5.96-1.49,7.16-4.61,17.15-45.93,49.44-101.51,85.71-143.46,36.51-42.13,68.56-82.25,100.17-127.65,38-54.58,72.74-108.82,105.98-166.85,71.92-125.58,120.45-295.51,88.11-439.93-10.33-46.17-24.07-89.55-41.41-133.61-54.16-137.49-196.61-259.29-327.14-339.22-5.68-3.48-1.9-12.22,4.53-10.5,151.05,40.38,286.13,124.5,383.58,244.84,35.99,44.39,61.06,94.02,72.78,149.32,7.91,37.31,5.76,73.29.42,110.12-1,6.89,8.81,9.36,11.15,2.8,9.23-25.94,13.86-54.13,21.42-78.23,1.74-5.55,9.79-5.19,11.13.48,9.94,41.81,15.31,82.78,13.68,125.73-4.42,116.26-36.42,244.39-128.08,322.9l-6.69,5.74c-5.63,4.82,1.27,13.52,7.17,9.03,35.5-27,66.63-64.15,94.61-99.14,3.6-4.5,10.8-1.53,10.25,4.21-5.47,56.89-40.15,140.6-65.99,182.83-49.1,80.14-119.43,141.53-201.68,186.26-38.39,20.9-73.84,42.85-106.94,70.53-19.99,16.72-38.58,32.09-63.66,41.22-10.67,3.89-18.59,11.53-24.17,22.39-11.64,22.53-22.18,46.32-31.64,70.78-.42,1.09-.53,2.28-.22,3.41.52,1.88.31,4.29.2,6-2.11,22.68-4.13,44.68-4.42,67.45-.18,12.37.99,23.82,4.61,35.72.47,1.54.3,3.22-.52,4.61l-85.91,145.36c-.48.82-2.02,1.68-2.78,1.92-.91.29-2.88-2.5-2.45-3.94l32.84-113.42c.41-1.43,1.34-2.67,2.65-3.38,1.17-.64,2.27-1.34,3.34-2.06,7.59-5.43,11.77-13.6,10.62-23.11-.43-3.41-2.69-7.16-5.19-8.65-1.2-.72-2.79-1.2-4.42-1.35-1.97-.19-4.08.05-5.86.82-9.99,4.23-16.62,15.42-14.08,26.38.48,2.08,1.71,4.3,2.8,6.53.59,1.21.75,2.6.43,3.91l-27.4,113.75c-.24,1.06-1.92,2.45-2.83,2.59-1.06.1-3.03-2.11-2.98-3.51l4.61-157.76c.03-1.11.4-2.21,1.03-3.13,14.86-21.69,21.32-29.95,32.89-54.49l22.48-47.66" fill="#800020"/>
</svg>